<?xml version="1.0" encoding="UTF-8" standalone="no"?>
<svg width="100px" height="100px" viewBox="0 0 100 100" version="1.1" xmlns="http://www.w3.org/2000/svg" xmlns:xlink="http://www.w3.org/1999/xlink">
    <!-- Generator: Sketch 3.8.3 (29802) - http://www.bohemiancoding.com/sketch -->
    <title>Group 2</title>
    <desc>Created with Sketch.</desc>
    <defs></defs>
    <g id="Page-1" stroke="none" stroke-width="1" fill="none" fill-rule="evenodd">
        <g id="Group-2">
            <path d="M87.5,0 L12.5,0 C5.625,0 0,5.625 0,12.5 L0,87.5 C0,94.375 5.625,100 12.5,100 L87.5,100 C94.375,100 100,94.375 100,87.5 L100,12.5 C100,5.625 94.375,0 87.5,0" id="Base" fill="#E44332"></path>
            <rect id="Orange" fill="#F8801C" x="2" y="2" width="46" height="46" rx="12"></rect>
            <rect id="Red" fill="#AC0000" x="52" y="2" width="46" height="46" rx="12"></rect>
            <rect id="Yellow" fill="#FCC12B" x="52" y="52" width="46" height="46" rx="12"></rect>
            <rect id="Gray" fill="#8A8A8A" x="2" y="52" width="46" height="46" rx="12"></rect>
            <g id="Checks" transform="translate(0.000000, 19.000000)" fill="#FFFFFF">
                <path d="M21.363,28.2673309 C23.129,27.2493309 60.963,5.47733094 61.831,4.97733094 C62.698,4.47733094 62.741,2.94233094 61.771,2.38933094 C60.801,1.83533094 58.961,0.789330939 58.274,0.389330939 C57.577,-0.0186690611 56.322,-0.244669061 55.158,0.425330939 C54.675,0.705330939 22.341,19.2953309 21.26,19.9103309 C19.966,20.6463309 18.365,20.6553309 17.076,19.9103309 C16.058,19.3183309 0,9.98833094 0,9.98833094 L0,18.4203309 C4.157,20.8403309 14.49,26.8603309 16.996,28.2743309 C18.491,29.1193309 19.922,29.0983309 21.363,28.2673309" id="Shape"></path>
                <path d="M21.363,45.2673309 C23.129,44.2493309 60.963,22.4773309 61.831,21.9773309 C62.698,21.4773309 62.741,19.9423309 61.771,19.3893309 C60.801,18.8353309 58.961,17.7893309 58.274,17.3893309 C57.577,16.9813309 56.322,16.7553309 55.158,17.4253309 C54.675,17.7053309 22.341,36.2953309 21.26,36.9093309 C19.966,37.6453309 18.365,37.6543309 17.076,36.9093309 C16.058,36.3183309 0,26.9883309 0,26.9883309 L0,35.4203309 C4.157,37.8403309 14.49,43.8603309 16.996,45.2743309 C18.491,46.1183309 19.922,46.0973309 21.363,45.2663309" id="Shape"></path>
                <path d="M21.363,62.2673309 C23.129,61.2493309 60.963,39.4773309 61.831,38.9773309 C62.698,38.4773309 62.741,36.9423309 61.771,36.3893309 C60.801,35.8353309 58.961,34.7893309 58.274,34.3893309 C57.577,33.9813309 56.322,33.7553309 55.158,34.4253309 C54.675,34.7053309 22.341,53.2953309 21.26,53.9093309 C19.966,54.6453309 18.365,54.6543309 17.076,53.9093309 C16.058,53.3183309 0,43.9883309 0,43.9883309 L0,52.4203309 C4.157,54.8403309 14.49,60.8603309 16.996,62.2743309 C18.491,63.1183309 19.922,63.0973309 21.363,62.2663309" id="Shape"></path>
            </g>
        </g>
    </g>
</svg>